<svg id="Layer_1" data-name="Layer 1" xmlns="http://www.w3.org/2000/svg" viewBox="0 0 296.39 60.54"><defs><style>.cls-1{fill:#fff;}.cls-2{fill:#71cfea;}</style></defs><title>KOGN8 white logo with light blue circle on transparent background CMYK</title><path class="cls-1" d="M.27,6.39a5,5,0,0,1,5.11-5,5,5,0,0,1,5,5V30.8L37.79,3.26A5.33,5.33,0,0,1,42,1.36a4.64,4.64,0,0,1,4.7,4.7,4.93,4.93,0,0,1-1.81,3.79l-18,17.31L46.36,51.33A5.49,5.49,0,0,1,47.76,55a5,5,0,0,1-5.11,4.95,5.14,5.14,0,0,1-4.29-2.39L19.81,33.85l-9.4,9.07v12a5,5,0,0,1-5,5,5,5,0,0,1-5.11-5Z" transform="translate(-0.27 -0.36)"/><path class="cls-1" d="M123.69,30.8v-.16c0-16.16,12.37-29.85,29.76-29.85,8.66,0,14.43,2.06,19.71,5.85a5.15,5.15,0,0,1,2.06,4.12,5.05,5.05,0,0,1-5,5,5.33,5.33,0,0,1-3.13-1.15,21.93,21.93,0,0,0-14-4.54c-10.63,0-18.71,9.32-18.71,20.37v.16c0,11.87,7.83,20.61,19.62,20.61a23.56,23.56,0,0,0,13.93-4.37V36.07H156.5A4.43,4.43,0,0,1,152,31.7a4.5,4.5,0,0,1,4.54-4.45h16.08a5,5,0,0,1,5.11,5.11V47.78a7,7,0,0,1-3.55,6.43,36.75,36.75,0,0,1-20.53,6.27C135.56,60.48,123.69,47.62,123.69,30.8Z" transform="translate(-0.27 -0.36)"/><path class="cls-1" d="M190.92,6.56A5.08,5.08,0,0,1,196,1.44h1.07c2.47,0,3.87,1.24,5.28,3l28.86,37.35V6.31a5,5,0,0,1,10,0V54.79a4.93,4.93,0,0,1-4.95,5h-.41c-2.39,0-3.87-1.24-5.28-3L200.9,18.35V55a5,5,0,0,1-10,0Z" transform="translate(-0.27 -0.36)"/><path class="cls-1" d="M252.63,43.74v-.16c0-6.93,3.87-11.3,10.39-14-4.86-2.56-8.41-6.43-8.41-12.86v-.16c0-8.82,8.49-15.58,20-15.58s20,6.68,20,15.58v.16c0,6.43-3.54,10.31-8.41,12.86,6.35,2.89,10.39,7,10.39,13.85v.16c0,10.31-9.4,16.74-22,16.74S252.63,53.72,252.63,43.74Zm34.14-.58V43c0-5.28-5.28-8.74-12.12-8.74s-12,3.46-12,8.74v.16c0,4.7,4.45,8.66,12,8.66S286.77,47.95,286.77,43.16ZM285,17.69v-.17c0-4.45-4.13-8.08-10.31-8.08s-10.31,3.63-10.31,8v.16c0,5,4.37,8.58,10.31,8.58S285,22.63,285,17.69Z" transform="translate(-0.27 -0.36)"/><path class="cls-2" d="M63.81,43.63a5.74,5.74,0,0,0,1.31-6.28,18.85,18.85,0,0,1,4.05-21.18A19.14,19.14,0,0,1,90.92,12.3a4.9,4.9,0,0,0,5.39-1.17l5-5C89.85-2.25,74-1.82,62.7,9.47S51,36.7,59.27,48.17Z" transform="translate(-0.27 -0.36)"/><path class="cls-2" d="M103.2,18.11a4.67,4.67,0,0,0-1.11,5.18A18.85,18.85,0,0,1,98.26,45,19.09,19.09,0,0,1,77,49.14a5.63,5.63,0,0,0-6.11,1.31l-4.67,4.67c11.44,8.39,27.31,8,38.6-3.32s11.72-27.23,3.43-38.7Z" transform="translate(-0.27 -0.36)"/></svg>