<svg id="Layer_1" data-name="Layer 1" xmlns="http://www.w3.org/2000/svg" viewBox="0 0 296.39 60.54"><defs><style>.cls-1{fill:#fff;}</style></defs><title>KOGN8 white logo on black background RGB</title><path class="cls-1" d="M.17,6A5,5,0,0,1,5.29,1a5,5,0,0,1,5,5v24.4L37.69,2.9A5.33,5.33,0,0,1,41.89,1a4.64,4.64,0,0,1,4.7,4.7A4.93,4.93,0,0,1,44.78,9.5l-18,17.31L46.26,51a5.49,5.49,0,0,1,1.4,3.63,5,5,0,0,1-5.11,4.95,5.14,5.14,0,0,1-4.29-2.39L19.71,33.49l-9.4,9.07v12a5,5,0,0,1-5,5,5,5,0,0,1-5.11-5Z" transform="translate(-0.17 -0.01)"/><path class="cls-1" d="M123.59,30.44v-.16C123.59,14.12,136,.43,153.35.43c8.66,0,14.43,2.06,19.71,5.85a5.15,5.15,0,0,1,2.06,4.12,5.05,5.05,0,0,1-5,5A5.33,5.33,0,0,1,167,14.28a21.93,21.93,0,0,0-14-4.54c-10.63,0-18.71,9.32-18.71,20.37v.16c0,11.87,7.83,20.61,19.62,20.61a23.56,23.56,0,0,0,13.93-4.37V35.72H156.4a4.43,4.43,0,0,1-4.54-4.37,4.5,4.5,0,0,1,4.54-4.45h16.08A5,5,0,0,1,177.59,32V47.43A7,7,0,0,1,174,53.86a36.75,36.75,0,0,1-20.53,6.27C135.46,60.13,123.59,47.26,123.59,30.44Z" transform="translate(-0.17 -0.01)"/><path class="cls-1" d="M190.82,6.2a5.08,5.08,0,0,1,5.11-5.11H197c2.47,0,3.87,1.24,5.28,3l28.86,37.35V6a5,5,0,0,1,10,0V54.44a4.93,4.93,0,0,1-4.95,5h-.41c-2.39,0-3.87-1.24-5.28-3L200.8,18V54.6a5,5,0,0,1-10,0Z" transform="translate(-0.17 -0.01)"/><path class="cls-1" d="M252.53,43.39v-.16c0-6.93,3.87-11.3,10.39-14-4.86-2.56-8.41-6.43-8.41-12.86v-.16c0-8.82,8.49-15.58,20-15.58s20,6.68,20,15.58v.16c0,6.43-3.54,10.31-8.41,12.86,6.35,2.89,10.39,7,10.39,13.85v.16c0,10.31-9.4,16.74-22,16.74S252.53,53.36,252.53,43.39Zm34.14-.58v-.16c0-5.28-5.28-8.74-12.12-8.74s-12,3.46-12,8.74v.16c0,4.7,4.45,8.66,12,8.66S286.67,47.59,286.67,42.81Zm-1.81-25.48v-.17c0-4.45-4.13-8.08-10.31-8.08s-10.31,3.63-10.31,8v.16c0,5,4.37,8.58,10.31,8.58S284.85,22.28,284.85,17.33Z" transform="translate(-0.17 -0.01)"/><path class="cls-1" d="M63.71,43.28A5.74,5.74,0,0,0,65,37a18.85,18.85,0,0,1,4.05-21.18,19.14,19.14,0,0,1,21.75-3.88,4.9,4.9,0,0,0,5.39-1.17l5-5c-11.44-8.39-27.31-8-38.6,3.32s-11.72,27.23-3.43,38.7Z" transform="translate(-0.17 -0.01)"/><path class="cls-1" d="M103.1,17.76A4.67,4.67,0,0,0,102,22.94a18.85,18.85,0,0,1-3.83,21.73,19.09,19.09,0,0,1-21.28,4.11,5.63,5.63,0,0,0-6.11,1.31l-4.67,4.67c11.44,8.39,27.31,8,38.6-3.32s11.72-27.23,3.43-38.7Z" transform="translate(-0.17 -0.01)"/></svg>