<svg id="Layer_1" data-name="Layer 1" xmlns="http://www.w3.org/2000/svg"><title>KOGN8 black logo on transparent background RGB</title><path d="M0,6.06A5,5,0,0,1,5.16,1a5,5,0,0,1,5,5v24.4L37.56,2.92A5.33,5.33,0,0,1,41.76,1a4.64,4.64,0,0,1,4.7,4.7,4.93,4.93,0,0,1-1.81,3.79l-18,17.31L46.13,51a5.49,5.49,0,0,1,1.4,3.63,5,5,0,0,1-5.11,4.95,5.14,5.14,0,0,1-4.29-2.39L19.58,33.51l-9.4,9.07v12a5,5,0,0,1-5,5,5,5,0,0,1-5.11-5Z" transform="translate(-0.04 -0.03)"/><path d="M123.46,30.46V30.3c0-16.16,12.37-29.85,29.76-29.85,8.66,0,14.43,2.06,19.71,5.85A5.15,5.15,0,0,1,175,10.43a5.05,5.05,0,0,1-5,5,5.33,5.33,0,0,1-3.13-1.15,21.93,21.93,0,0,0-14-4.54c-10.63,0-18.71,9.32-18.71,20.37v.16c0,11.87,7.83,20.61,19.62,20.61a23.56,23.56,0,0,0,13.93-4.37V35.74H156.27a4.43,4.43,0,0,1-4.54-4.37,4.5,4.5,0,0,1,4.54-4.45h16.08A5,5,0,0,1,177.46,32V47.45a7,7,0,0,1-3.55,6.43,36.75,36.75,0,0,1-20.53,6.27C135.33,60.15,123.46,47.28,123.46,30.46Z" transform="translate(-0.04 -0.03)"/><path d="M190.69,6.22a5.08,5.08,0,0,1,5.11-5.11h1.07c2.47,0,3.87,1.24,5.28,3L231,41.43V6a5,5,0,0,1,10,0V54.46a4.93,4.93,0,0,1-4.95,5h-.41c-2.39,0-3.87-1.24-5.28-3L200.67,18V54.62a5,5,0,0,1-10,0Z" transform="translate(-0.04 -0.03)"/><path d="M252.4,43.41v-.16c0-6.93,3.87-11.3,10.39-14-4.86-2.56-8.41-6.43-8.41-12.86V16.2c0-8.82,8.49-15.58,20-15.58s20,6.68,20,15.58v.16c0,6.43-3.54,10.31-8.41,12.86,6.35,2.89,10.39,7,10.39,13.85v.16c0,10.31-9.4,16.74-22,16.74S252.4,53.38,252.4,43.41Zm34.14-.58v-.16c0-5.28-5.28-8.74-12.12-8.74s-12,3.46-12,8.74v.16c0,4.7,4.45,8.66,12,8.66S286.54,47.61,286.54,42.83Zm-1.81-25.48v-.17c0-4.45-4.13-8.08-10.31-8.08s-10.31,3.63-10.31,8v.16c0,5,4.37,8.58,10.31,8.58S284.72,22.3,284.72,17.35Z" transform="translate(-0.04 -0.03)"/><path d="M63.58,43.3A5.74,5.74,0,0,0,64.88,37a18.85,18.85,0,0,1,4.05-21.18A19.14,19.14,0,0,1,90.69,12a4.9,4.9,0,0,0,5.39-1.17l5-5c-11.44-8.39-27.31-8-38.6,3.32S50.75,36.36,59,47.83Z" transform="translate(-0.04 -0.03)"/><path d="M103,17.78A4.67,4.67,0,0,0,101.86,23,18.85,18.85,0,0,1,98,44.7a19.09,19.09,0,0,1-21.28,4.11,5.63,5.63,0,0,0-6.11,1.31L66,54.79c11.44,8.39,27.31,8,38.6-3.32s11.72-27.23,3.43-38.7Z" transform="translate(-0.04 -0.03)"/></svg>