<svg id="Layer_1" data-name="Layer 1" xmlns="http://www.w3.org/2000/svg" viewBox="0 0 296.39 60.54"><title>KOGN8 black logo on white background CMYK</title><path d="M.19,6.22a5,5,0,0,1,5.11-5,5,5,0,0,1,5,5v24.4L37.7,3.09a5.33,5.33,0,0,1,4.2-1.9,4.64,4.64,0,0,1,4.7,4.7,4.93,4.93,0,0,1-1.81,3.79L26.82,27,46.28,51.16a5.49,5.49,0,0,1,1.4,3.63,5,5,0,0,1-5.11,4.95,5.14,5.14,0,0,1-4.29-2.39L19.73,33.68l-9.4,9.07v12a5,5,0,0,1-5,5,5,5,0,0,1-5.11-5Z" transform="translate(-0.19 -0.19)"/><path d="M123.6,30.63v-.16C123.6,14.3,136,.62,153.37.62c8.66,0,14.43,2.06,19.71,5.85a5.15,5.15,0,0,1,2.06,4.12,5.05,5.05,0,0,1-5,5A5.33,5.33,0,0,1,167,14.47a21.93,21.93,0,0,0-14-4.54c-10.63,0-18.71,9.32-18.71,20.37v.16c0,11.87,7.83,20.61,19.62,20.61a23.56,23.56,0,0,0,13.93-4.37V35.91H156.42a4.43,4.43,0,0,1-4.54-4.37,4.5,4.5,0,0,1,4.54-4.45H172.5a5,5,0,0,1,5.11,5.11V47.61A7,7,0,0,1,174.06,54a36.75,36.75,0,0,1-20.53,6.27C135.47,60.31,123.6,47.45,123.6,30.63Z" transform="translate(-0.19 -0.19)"/><path d="M190.84,6.39a5.08,5.08,0,0,1,5.11-5.11H197c2.47,0,3.87,1.24,5.28,3L231.16,41.6V6.14a5,5,0,0,1,10,0V54.62a4.93,4.93,0,0,1-4.95,5h-.41c-2.39,0-3.87-1.24-5.28-3L200.82,18.18V54.79a5,5,0,0,1-10,0Z" transform="translate(-0.19 -0.19)"/><path d="M252.55,43.57v-.16c0-6.93,3.87-11.3,10.39-14-4.86-2.56-8.41-6.43-8.41-12.86v-.16c0-8.82,8.49-15.58,20-15.58s20,6.68,20,15.58v.16c0,6.43-3.54,10.31-8.41,12.86,6.35,2.89,10.39,7,10.39,13.85v.16c0,10.31-9.4,16.74-22,16.74S252.55,53.55,252.55,43.57ZM286.68,43v-.16c0-5.28-5.28-8.74-12.12-8.74s-12,3.46-12,8.74V43c0,4.7,4.45,8.66,12,8.66S286.68,47.78,286.68,43Zm-1.81-25.48v-.17c0-4.45-4.13-8.08-10.31-8.08s-10.31,3.63-10.31,8v.16c0,5,4.37,8.58,10.31,8.58S284.87,22.47,284.87,17.52Z" transform="translate(-0.19 -0.19)"/><path d="M63.72,43.46A5.74,5.74,0,0,0,65,37.18,18.85,18.85,0,0,1,69.08,16a19.14,19.14,0,0,1,21.75-3.88A4.9,4.9,0,0,0,96.23,11l5-5C89.77-2.41,73.9-2,62.61,9.3S50.89,36.53,59.19,48Z" transform="translate(-0.19 -0.19)"/><path d="M103.12,17.95A4.67,4.67,0,0,0,102,23.13a18.85,18.85,0,0,1-3.83,21.73A19.09,19.09,0,0,1,76.89,49a5.63,5.63,0,0,0-6.11,1.31L66.11,55c11.44,8.39,27.31,8,38.6-3.32s11.72-27.23,3.43-38.7Z" transform="translate(-0.19 -0.19)"/></svg>