<svg id="Layer_1" data-name="Layer 1" xmlns="http://www.w3.org/2000/svg" viewBox="0 0 296.39 60.54"><defs><style>.cls-1{fill:#fff;}.cls-2{fill:#67d9f4;}</style></defs><title>KOGN8 white logo with light blue circle on dark blue background RGB</title><path class="cls-1" d="M.15,6.1a5,5,0,0,1,5.11-5,5,5,0,0,1,5,5V30.5L37.66,3a5.33,5.33,0,0,1,4.2-1.9,4.64,4.64,0,0,1,4.7,4.7,4.93,4.93,0,0,1-1.81,3.79l-18,17.31L46.24,51a5.49,5.49,0,0,1,1.4,3.63,5,5,0,0,1-5.11,4.95,5.14,5.14,0,0,1-4.29-2.39L19.69,33.56l-9.4,9.07v12a5,5,0,0,1-5,5,5,5,0,0,1-5.11-5Z" transform="translate(-0.15 -0.07)"/><path class="cls-1" d="M123.56,30.5v-.16c0-16.16,12.37-29.85,29.76-29.85C162,.49,167.76,2.55,173,6.35a5.15,5.15,0,0,1,2.06,4.12,5.05,5.05,0,0,1-5,5,5.33,5.33,0,0,1-3.13-1.15,21.93,21.93,0,0,0-14-4.54c-10.63,0-18.71,9.32-18.71,20.37v.16C134.2,42.21,142,51,153.82,51a23.56,23.56,0,0,0,13.93-4.37V35.78H156.38a4.43,4.43,0,0,1-4.54-4.37A4.5,4.5,0,0,1,156.38,27h16.08a5,5,0,0,1,5.11,5.11V47.49A7,7,0,0,1,174,53.92a36.75,36.75,0,0,1-20.53,6.27C135.43,60.19,123.56,47.32,123.56,30.5Z" transform="translate(-0.15 -0.07)"/><path class="cls-1" d="M190.8,6.26a5.08,5.08,0,0,1,5.11-5.11H197c2.47,0,3.87,1.24,5.28,3l28.86,37.35V6a5,5,0,0,1,10,0V54.5a4.93,4.93,0,0,1-4.95,5h-.41c-2.39,0-3.87-1.24-5.28-3L200.77,18.05V54.66a5,5,0,0,1-10,0Z" transform="translate(-0.15 -0.07)"/><path class="cls-1" d="M252.51,43.45v-.16c0-6.93,3.87-11.3,10.39-14-4.86-2.56-8.41-6.43-8.41-12.86v-.16c0-8.82,8.49-15.58,20-15.58s20,6.68,20,15.58v.16c0,6.43-3.54,10.31-8.41,12.86,6.35,2.89,10.39,7,10.39,13.85v.16c0,10.31-9.4,16.74-22,16.74S252.51,53.43,252.51,43.45Zm34.14-.58v-.16c0-5.28-5.28-8.74-12.12-8.74s-12,3.46-12,8.74v.16c0,4.7,4.45,8.66,12,8.66S286.64,47.65,286.64,42.87ZM284.83,17.4v-.17c0-4.45-4.13-8.08-10.31-8.08s-10.31,3.63-10.31,8v.16c0,5,4.37,8.58,10.31,8.58S284.83,22.34,284.83,17.4Z" transform="translate(-0.15 -0.07)"/><path class="cls-2" d="M63.68,43.34A5.74,5.74,0,0,0,65,37.06,18.85,18.85,0,0,1,69,15.88,19.14,19.14,0,0,1,90.79,12a4.9,4.9,0,0,0,5.39-1.17l5-5c-11.44-8.39-27.31-8-38.6,3.32s-11.72,27.23-3.43,38.7Z" transform="translate(-0.15 -0.07)"/><path class="cls-2" d="M103.07,17.82A4.67,4.67,0,0,0,102,23a18.85,18.85,0,0,1-3.83,21.73,19.09,19.09,0,0,1-21.28,4.11,5.63,5.63,0,0,0-6.11,1.31l-4.67,4.67c11.44,8.39,27.31,8,38.6-3.32s11.72-27.23,3.43-38.7Z" transform="translate(-0.15 -0.07)"/></svg>