<svg xmlns="http://www.w3.org/2000/svg" xmlns:xlink="http://www.w3.org/1999/xlink" version="1.1" x="0px" y="0px" viewBox="0 0 200 250" style="enable-background:new 0 0 200 200;" xml:space="preserve"><style type="text/css">
	.st0{fill:#ffe6e6;}
</style><g><circle class="st0" cx="124.7" cy="119.1" r="4.5"/><circle class="st0" cx="76.4" cy="119.1" r="4.5"/><path class="st0" d="M158.8,110.2L158.8,110.2c-1.8-4.2-4.9-6.7-8.5-7c-0.2,0-0.4,0-0.6,0C147,90.3,139.2,79,128.2,71.6   c0.9-3,1.4-5.9,1.4-8.6c0-15.5-12.6-28.1-28.1-28.1s-28,12.7-28,28.2c0,2.4,0.3,4.7,0.9,7c-11.3,6.6-19.6,17.2-23.2,29.7   c-3.2-1.6-5.6-3.5-6.8-5.3c-0.7-1.2-2.3-1.5-3.4-0.8c-1.2,0.7-1.5,2.3-0.8,3.4c1.5,2.4,4.1,4.6,7.6,6.5c-5.1,1.7-8.6,8.3-8,16.2   c0.6,8.7,5.6,15.2,11.6,15.2c0.2,0,0.4,0,0.5,0c0.6,0,1.1-0.2,1.7-0.3C61.6,153,79.9,165,100,165s38.4-12.1,46.5-30.3   c0.6,0.2,1.1,0.3,1.7,0.3c0.2,0,0.4,0,0.5,0c6,0,11-6.5,11.5-15.2C160.6,116.4,160,113,158.8,110.2z M145,104.9   c-5.4-2.6-10-6.2-13.5-10.8c-3.4-4.5-6-9.1-7.6-13.5c0.9-1.4,1.6-2.8,2.3-4.3C136,83.2,142.7,93.4,145,104.9z M101.5,40   c12.7,0,23.1,10.3,23.1,23.1c0,1.9-0.3,3.9-0.9,5.9c-1.1-0.6-2.1-1.1-3.2-1.6l0,0c-6.5-2.9-13.4-4.3-20.5-4.3   c-7.3,0-14.5,1.6-21,4.6c-0.3-1.5-0.5-3.1-0.5-4.6C78.5,50.3,88.8,40,101.5,40z M78.5,73.5c6.6-3.5,14-5.3,21.5-5.3   c6.4,0,12.6,1.3,18.5,3.9l0,0c1.2,0.5,2.4,1.1,3.5,1.8c-0.8,1.8-1.8,3.5-2.9,5.3l0,0c-6.6,10.1-17.6,18.2-30.2,22.2   c-15.2,4.8-27.2,2.4-33.1,0.5C59.2,89.6,67.3,79.4,78.5,73.5z M44.7,119.5c-0.4-6,2.1-10.5,4.7-11.2c-0.2,1.9-0.3,3.9-0.3,5.8   c0,5.5,0.9,10.8,2.6,16c-0.1,0-0.1,0-0.2,0C48.5,130.3,45.1,126,44.7,119.5z M100,160c-18.9,0-36.2-11.9-42.9-29.5   c-2-5.2-3-10.8-3-16.4c0-2.5,0.2-5,0.6-7.5c5.1,1.6,10.6,2.5,16.4,2.5c6.4,0,13-1,19.4-3c12.1-3.8,22.8-11.1,30.1-20.4   c1.7,3.9,4.1,7.8,7,11.6c4.3,5.6,9.8,9.9,16.6,12.9l0,0c0.5,0.2,1.1,0.5,1.7,0.7c0.1,1.1,0.1,2.2,0.1,3.3c0,5.6-1,11.1-3,16.4   C136.2,148.1,118.9,160,100,160z M155.3,119.5c-0.4,6.4-3.9,10.7-6.8,10.5c-0.1,0-0.1,0-0.2,0c1.7-5.2,2.6-10.5,2.6-16   c0-1.7-0.1-3.5-0.3-5.2l0,0v-0.1c0-0.1,0-0.3,0-0.4c1.4,0.4,2.7,1.8,3.6,3.8l0,0C155.1,114.3,155.5,116.9,155.3,119.5z"/><path class="st0" d="M106.7,133c-1.3,1.3-3.5,2-6.7,2s-5.4-0.7-6.7-2c-1-1-2.6-1-3.5,0c-1,1-1,2.6,0,3.5c2.3,2.3,5.7,3.5,10.2,3.5   s8-1.2,10.2-3.5c1-1,1-2.6,0-3.5C109.2,132,107.7,132,106.7,133z"/></g>
</svg>