<?xml version="1.0" encoding="utf-8"?>
<!-- Generator: Adobe Illustrator 21.0.0, SVG Export Plug-In . SVG Version: 6.00 Build 0)  -->
<svg version="1.1" id="Layer_1" xmlns="http://www.w3.org/2000/svg" xmlns:xlink="http://www.w3.org/1999/xlink" x="0px" 
	 viewBox="0 0 500 500" style="enable-background:new 0 0 500 500;" xml:space="preserve">
<style type="text/css">
	.st0{fill:#040E1D;}
	.st1{fill:#67D9F4;}
</style>
<g>
	<path class="st0" d="M99.9,225.4c0-2.8,2.3-5.1,5.2-5.1c2.8,0,5.1,2.3,5.1,5.1v24.7l27.7-27.9c1.2-1.3,2.4-1.9,4.3-1.9
		c2.8,0,4.8,2.3,4.8,4.8c0,1.6-0.7,2.8-1.8,3.8l-18.2,17.5l19.7,24.5c0.8,1.1,1.4,2.1,1.4,3.7c0,2.8-2.3,5-5.2,5c-2,0-3.3-1-4.3-2.4
		l-18.8-24l-9.5,9.2v12.1c0,2.8-2.3,5.1-5.1,5.1c-2.9,0-5.2-2.3-5.2-5.1V225.4z"/>
	<path class="st0" d="M224.9,250.2V250c0-16.4,12.5-30.2,30.1-30.2c8.8,0,14.6,2.1,20,5.9c1,0.8,2.1,2.2,2.1,4.2
		c0,2.8-2.3,5.1-5.1,5.1c-1.3,0-2.3-0.6-3.2-1.2c-3.8-2.8-7.9-4.6-14.2-4.6c-10.8,0-19,9.4-19,20.6v0.2c0,12,7.9,20.9,19.9,20.9
		c5.5,0,10.5-1.8,14.1-4.4v-10.9h-11.5c-2.5,0-4.6-1.9-4.6-4.4s2.1-4.5,4.6-4.5h16.3c2.9,0,5.2,2.3,5.2,5.2v15.6
		c0,2.9-1.2,5-3.6,6.5c-5,3.3-12,6.3-20.8,6.3C236.9,280.2,224.9,267.2,224.9,250.2z"/>
	<path class="st0" d="M293,225.6c0-2.8,2.3-5.2,5.2-5.2h1.1c2.5,0,3.9,1.3,5.3,3l29.2,37.8v-35.9c0-2.8,2.3-5,5-5
		c2.8,0,5.1,2.3,5.1,5v49.1c0,2.8-2.2,5.1-5,5.1h-0.4c-2.4,0-3.9-1.3-5.3-3.1l-30.1-38.9v37.1c0,2.8-2.3,5-5,5c-2.8,0-5.1-2.3-5.1-5
		V225.6z"/>
	<path class="st0" d="M355.5,263.3v-0.2c0-7,3.9-11.4,10.5-14.2c-4.9-2.6-8.5-6.5-8.5-13v-0.2c0-8.9,8.6-15.8,20.3-15.8
		s20.3,6.8,20.3,15.8v0.2c0,6.5-3.6,10.4-8.5,13c6.4,2.9,10.5,7.1,10.5,14v0.2c0,10.4-9.5,17-22.3,17S355.5,273.4,355.5,263.3z
		 M390.1,262.7v-0.2c0-5.3-5.3-8.9-12.3-8.9c-6.9,0-12.2,3.5-12.2,8.9v0.2c0,4.8,4.5,8.8,12.2,8.8S390.1,267.5,390.1,262.7z
		 M388.2,236.9v-0.2c0-4.5-4.2-8.2-10.4-8.2s-10.4,3.7-10.4,8.1v0.2c0,5.1,4.4,8.7,10.4,8.7C383.8,245.5,388.2,241.9,388.2,236.9z"
		/>
	<g>
		<path class="st1" d="M164.3,263.2c1.7-1.7,2.2-4.2,1.3-6.4c-3.1-7.1-1.9-15.4,4.1-21.4c6.2-6.2,14.7-7.2,22-3.9
			c1.8,0.8,4,0.2,5.5-1.2l5-5c-11.6-8.5-27.7-8.1-39.1,3.4c-11.4,11.4-11.9,27.6-3.5,39.2L164.3,263.2z"/>
		<path class="st1" d="M204.2,237.3c-1.4,1.4-1.9,3.5-1.1,5.2c3.4,7.3,2.3,15.8-3.9,22c-6,6-14.4,7.2-21.6,4.2
			c-2.1-0.9-4.6-0.3-6.2,1.3l-4.7,4.7c11.6,8.5,27.7,8.1,39.1-3.4c11.4-11.4,11.9-27.6,3.5-39.2L204.2,237.3z"/>
	</g>
</g>
</svg>
