<svg id="Layer_1" data-name="Layer 1" xmlns="http://www.w3.org/2000/svg" viewBox="0 0 296.39 60.54"><defs><style>.cls-1{fill:#040e1d;}.cls-2{fill:#67d9f4;}</style></defs><title>KOGN8 dark and light blue logo on white background RGB</title><path class="cls-1" d="M.16,6.15a5,5,0,0,1,5.11-5,5,5,0,0,1,5,5v24.4L37.67,3a5.33,5.33,0,0,1,4.2-1.9,4.64,4.64,0,0,1,4.7,4.7,4.93,4.93,0,0,1-1.81,3.79l-18,17.31L46.25,51.09a5.49,5.49,0,0,1,1.4,3.63,5,5,0,0,1-5.11,4.95,5.14,5.14,0,0,1-4.29-2.39L19.7,33.61l-9.4,9.07v12a5,5,0,0,1-5,5,5,5,0,0,1-5.11-5Z" transform="translate(-0.16 -0.12)"/><path class="cls-1" d="M123.57,30.56v-.16c0-16.16,12.37-29.85,29.76-29.85C162,.54,167.77,2.61,173,6.4a5.15,5.15,0,0,1,2.06,4.12,5.05,5.05,0,0,1-5,5,5.33,5.33,0,0,1-3.13-1.15,21.93,21.93,0,0,0-14-4.54c-10.63,0-18.71,9.32-18.71,20.37v.16C134.21,42.26,142,51,153.83,51a23.56,23.56,0,0,0,13.93-4.37V35.83H156.39a4.43,4.43,0,0,1-4.54-4.37A4.5,4.5,0,0,1,156.39,27h16.08a5,5,0,0,1,5.11,5.11V47.54A7,7,0,0,1,174,54a36.75,36.75,0,0,1-20.53,6.27C135.44,60.24,123.57,47.38,123.57,30.56Z" transform="translate(-0.16 -0.12)"/><path class="cls-1" d="M190.81,6.32a5.08,5.08,0,0,1,5.11-5.11H197c2.47,0,3.87,1.24,5.28,3l28.86,37.35V6.07a5,5,0,0,1,10,0V54.55a4.93,4.93,0,0,1-4.95,5h-.41c-2.39,0-3.87-1.24-5.28-3L200.78,18.11V54.71a5,5,0,0,1-10,0Z" transform="translate(-0.16 -0.12)"/><path class="cls-1" d="M252.52,43.5v-.16c0-6.93,3.87-11.3,10.39-14-4.86-2.56-8.41-6.43-8.41-12.86v-.16c0-8.82,8.49-15.58,20-15.58s20,6.68,20,15.58v.16c0,6.43-3.54,10.31-8.41,12.86,6.35,2.89,10.39,7,10.39,13.85v.16c0,10.31-9.4,16.74-22,16.74S252.52,53.48,252.52,43.5Zm34.14-.58v-.16c0-5.28-5.28-8.74-12.12-8.74s-12,3.46-12,8.74v.16c0,4.7,4.45,8.66,12,8.66S286.65,47.71,286.65,42.92Zm-1.81-25.48v-.17c0-4.45-4.13-8.08-10.31-8.08s-10.31,3.63-10.31,8v.16c0,5,4.37,8.58,10.31,8.58S284.84,22.39,284.84,17.45Z" transform="translate(-0.16 -0.12)"/><path class="cls-2" d="M63.69,43.39A5.74,5.74,0,0,0,65,37.11a18.85,18.85,0,0,1,4.05-21.18A19.14,19.14,0,0,1,90.8,12.06a4.9,4.9,0,0,0,5.39-1.17l5-5c-11.44-8.39-27.31-8-38.6,3.32s-11.72,27.23-3.43,38.7Z" transform="translate(-0.16 -0.12)"/><path class="cls-2" d="M103.08,17.87A4.67,4.67,0,0,0,102,23.06a18.85,18.85,0,0,1-3.83,21.73A19.09,19.09,0,0,1,76.86,48.9a5.63,5.63,0,0,0-6.11,1.31l-4.67,4.67c11.44,8.39,27.31,8,38.6-3.32s11.72-27.23,3.43-38.7Z" transform="translate(-0.16 -0.12)"/></svg>