<?xml version="1.0" encoding="utf-8"?>
<!-- Generator: Adobe Illustrator 24.1.0, SVG Export Plug-In . SVG Version: 6.00 Build 0)  -->
<svg version="1.1" id="Layer_1" xmlns="http://www.w3.org/2000/svg" xmlns:xlink="http://www.w3.org/1999/xlink" x="0px" y="0px"
	 viewBox="0 0 216 216" style="enable-background:new 0 0 216 216;" xml:space="preserve">
<style type="text/css">
	.st0{opacity:0.55;}
	.st1{clip-path:url(#SVGID_2_);fill:#C5AB2E;}
	.st2{fill:#E1C575;}
	.st3{clip-path:url(#SVGID_4_);fill:#C5AB2E;}
	.st4{fill:#E1638C;}
	.st5{opacity:0.76;}
	.st6{clip-path:url(#SVGID_6_);fill:#C41E5F;}
	.st7{opacity:0.8;}
	.st8{clip-path:url(#SVGID_8_);fill:#E1638C;}
	.st9{fill:#C41E5F;}
	.st10{fill:#C8C92D;}
	.st11{opacity:0.64;}
	.st12{clip-path:url(#SVGID_10_);fill:#C8C92D;}
	.st13{fill:#C5AB2E;}
	.st14{opacity:0.79;}
	.st15{clip-path:url(#SVGID_12_);fill:#E1638C;}
	.st16{opacity:0.65;}
	.st17{clip-path:url(#SVGID_14_);fill:#E1638C;}
	.st18{clip-path:url(#SVGID_16_);fill:#C8C92D;}
	.st19{clip-path:url(#SVGID_18_);fill:#C5AB2E;}
	.st20{opacity:0.78;}
	.st21{clip-path:url(#SVGID_20_);fill:#E1638C;}
	.st22{clip-path:url(#SVGID_22_);fill:#C8C92D;}
	.st23{clip-path:url(#SVGID_24_);fill:#C5AB2E;}
	.st24{clip-path:url(#SVGID_26_);fill:#C8C92D;}
	.st25{clip-path:url(#SVGID_28_);fill:#C5AB2E;}
	.st26{clip-path:url(#SVGID_30_);fill:#C8C92D;}
	.st27{clip-path:url(#SVGID_32_);fill:#C8C92D;}
	.st28{fill:#5C4C44;}
	.st29{clip-path:url(#SVGID_34_);fill:#C8C92D;}
</style>
<g>
	<g>
		<g class="st0">
			<g>
				<g>
					<defs>
						<rect id="SVGID_1_" x="70.23" y="17.09" width="20.46" height="20.46"/>
					</defs>
					<clipPath id="SVGID_2_">
						<use xlink:href="#SVGID_1_"  style="overflow:visible;"/>
					</clipPath>
					<path class="st1" d="M90.69,27.32c0,5.65-4.58,10.23-10.23,10.23c-5.65,0-10.23-4.58-10.23-10.23s4.58-10.23,10.23-10.23
						S90.69,21.67,90.69,27.32"/>
				</g>
			</g>
		</g>
		<path class="st2" d="M92.85,69.22c0,5.65-4.58,10.23-10.22,10.23c-5.65,0-10.24-4.58-10.24-10.23c0-5.65,4.58-10.23,10.24-10.23
			C88.27,58.99,92.85,63.57,92.85,69.22"/>
		<g class="st0">
			<g>
				<g>
					<defs>
						<rect id="SVGID_3_" x="113.31" y="107.67" width="22.74" height="22.74"/>
					</defs>
					<clipPath id="SVGID_4_">
						<use xlink:href="#SVGID_3_"  style="overflow:visible;"/>
					</clipPath>
					<path class="st3" d="M136.05,119.04c0,6.28-5.09,11.37-11.37,11.37c-6.28,0-11.37-5.09-11.37-11.37
						c0-6.28,5.1-11.37,11.37-11.37C130.96,107.67,136.05,112.76,136.05,119.04"/>
				</g>
			</g>
		</g>
		<path class="st2" d="M58.86,144.56c0,5.65-4.58,10.23-10.23,10.23s-10.23-4.58-10.23-10.23c0-5.66,4.58-10.24,10.23-10.24
			C54.28,134.33,58.86,138.91,58.86,144.56"/>
		<path class="st2" d="M183.12,141.8c0,3.96-3.2,7.16-7.16,7.16s-7.16-3.2-7.16-7.16c0-3.95,3.21-7.16,7.16-7.16
			C179.91,134.64,183.12,137.85,183.12,141.8"/>
		<path class="st4" d="M195.74,99.94c0,5.65-4.58,10.23-10.23,10.23s-10.23-4.58-10.23-10.23c0-5.65,4.58-10.23,10.23-10.23
			C191.16,89.71,195.74,94.29,195.74,99.94"/>
		<g class="st5">
			<g>
				<g>
					<defs>
						<rect id="SVGID_5_" x="98.36" y="12.18" width="20.46" height="20.47"/>
					</defs>
					<clipPath id="SVGID_6_">
						<use xlink:href="#SVGID_5_"  style="overflow:visible;"/>
					</clipPath>
					<path class="st6" d="M118.83,22.41c0,5.65-4.58,10.23-10.23,10.23c-5.65,0-10.23-4.58-10.23-10.23s4.58-10.23,10.23-10.23
						S118.83,16.76,118.83,22.41"/>
				</g>
			</g>
		</g>
		<path class="st4" d="M134.91,39.46c0,5.65-4.58,10.23-10.23,10.23c-5.65,0-10.23-4.58-10.23-10.23c0-5.66,4.58-10.23,10.23-10.23
			S134.91,33.81,134.91,39.46"/>
		<path class="st4" d="M104.22,104.74c0,5.65-4.58,10.23-10.23,10.23c-5.65,0-10.23-4.58-10.23-10.23c0-5.65,4.58-10.23,10.23-10.23
			C99.64,94.51,104.22,99.09,104.22,104.74"/>
		<g class="st7">
			<g>
				<g>
					<defs>
						<rect id="SVGID_7_" x="110.63" y="70.37" width="20.46" height="20.46"/>
					</defs>
					<clipPath id="SVGID_8_">
						<use xlink:href="#SVGID_7_"  style="overflow:visible;"/>
					</clipPath>
					<path class="st8" d="M131.09,80.6c0,5.65-4.58,10.23-10.23,10.23c-5.65,0-10.23-4.58-10.23-10.23
						c0-5.65,4.58-10.23,10.23-10.23C126.51,70.37,131.09,74.95,131.09,80.6"/>
				</g>
			</g>
		</g>
		<path class="st4" d="M57.27,42.65c0,5.65-4.58,10.23-10.23,10.23S36.81,48.3,36.81,42.65s4.58-10.23,10.23-10.23
			C52.69,32.42,57.27,37,57.27,42.65"/>
		<path class="st9" d="M159.24,98.04c0,5.65-4.58,10.23-10.23,10.23s-10.23-4.58-10.23-10.23c0-5.65,4.58-10.23,10.23-10.23
			C154.66,87.8,159.24,92.39,159.24,98.04"/>
		<path class="st10" d="M144.69,54.01c0,3.14-2.54,5.69-5.68,5.69s-5.69-2.55-5.69-5.69s2.54-5.68,5.69-5.68
			C142.15,48.33,144.69,50.88,144.69,54.01"/>
		<path class="st10" d="M144.69,42.65c0,1.57-1.28,2.84-2.84,2.84s-2.84-1.27-2.84-2.84s1.27-2.84,2.84-2.84
			S144.69,41.08,144.69,42.65"/>
		<g class="st11">
			<g>
				<g>
					<defs>
						<rect id="SVGID_9_" x="123.66" y="93.38" width="11.37" height="11.37"/>
					</defs>
					<clipPath id="SVGID_10_">
						<use xlink:href="#SVGID_9_"  style="overflow:visible;"/>
					</clipPath>
					<path class="st12" d="M135.03,99.06c0,3.14-2.54,5.69-5.68,5.69s-5.69-2.54-5.69-5.69c0-3.13,2.55-5.68,5.69-5.68
						C132.48,93.38,135.03,95.92,135.03,99.06"/>
				</g>
			</g>
		</g>
		<path class="st10" d="M76.82,89.51c0,3.14-2.55,5.68-5.68,5.68c-3.14,0-5.69-2.54-5.69-5.68s2.55-5.69,5.69-5.69
			C74.28,83.83,76.82,86.37,76.82,89.51"/>
		<path class="st10" d="M104.79,79.96c0,3.14-2.54,5.68-5.68,5.68s-5.69-2.54-5.69-5.68s2.54-5.68,5.69-5.68
			C102.24,74.28,104.79,76.82,104.79,79.96"/>
		<path class="st13" d="M100.24,35.43c0,2.51-2.04,4.55-4.55,4.55s-4.55-2.04-4.55-4.55s2.04-4.55,4.55-4.55
			C98.21,30.88,100.24,32.92,100.24,35.43"/>
		<path class="st13" d="M147.53,121.34c0,2.51-2.04,4.55-4.55,4.55c-2.51,0-4.55-2.04-4.55-4.55s2.04-4.55,4.55-4.55
			C145.5,116.79,147.53,118.83,147.53,121.34"/>
		<path class="st9" d="M45.67,111.31c0,5.65-4.58,10.23-10.23,10.23s-10.23-4.58-10.23-10.23c0-5.65,4.58-10.23,10.23-10.23
			S45.67,105.66,45.67,111.31"/>
		<g class="st14">
			<g>
				<g>
					<defs>
						<rect id="SVGID_11_" x="25.21" y="62.23" width="20.46" height="20.46"/>
					</defs>
					<clipPath id="SVGID_12_">
						<use xlink:href="#SVGID_11_"  style="overflow:visible;"/>
					</clipPath>
					<path class="st15" d="M45.67,72.46c0,5.65-4.58,10.23-10.23,10.23s-10.23-4.58-10.23-10.23c0-5.65,4.58-10.23,10.23-10.23
						C41.09,62.23,45.67,66.81,45.67,72.46"/>
				</g>
			</g>
		</g>
		<path class="st13" d="M77.05,110.17c0,5.65-4.58,10.24-10.23,10.24c-5.65,0-10.23-4.58-10.23-10.24c0-5.65,4.58-10.23,10.23-10.23
			C72.47,99.94,77.05,104.52,77.05,110.17"/>
		<path class="st4" d="M99.11,149.28c0,3.13-2.55,5.68-5.69,5.68s-5.69-2.55-5.69-5.68c0-3.14,2.55-5.69,5.69-5.69
			S99.11,146.14,99.11,149.28"/>
		<g class="st16">
			<g>
				<g>
					<defs>
						<rect id="SVGID_13_" x="54.31" y="157.25" width="18.19" height="18.19"/>
					</defs>
					<clipPath id="SVGID_14_">
						<use xlink:href="#SVGID_13_"  style="overflow:visible;"/>
					</clipPath>
					<path class="st17" d="M72.5,166.34c0,5.03-4.07,9.1-9.09,9.1s-9.1-4.07-9.1-9.1c0-5.02,4.07-9.09,9.1-9.09
						C68.43,157.25,72.5,161.32,72.5,166.34"/>
				</g>
			</g>
		</g>
		<path class="st9" d="M105.53,168.93c0,5.02-4.07,9.09-9.09,9.09s-9.09-4.07-9.09-9.09c0-5.02,4.07-9.1,9.09-9.1
			C101.46,159.84,105.53,163.91,105.53,168.93"/>
		<path class="st10" d="M143.16,145.87c0,3.13-2.55,5.68-5.69,5.68s-5.68-2.55-5.68-5.68c0-3.14,2.55-5.69,5.68-5.69
			C140.62,140.19,143.16,142.73,143.16,145.87"/>
		<path class="st10" d="M133.21,18.69c0,3.14-2.55,5.69-5.68,5.69c-3.14,0-5.68-2.54-5.68-5.69c0-3.14,2.54-5.68,5.68-5.68
			C130.66,13.01,133.21,15.56,133.21,18.69"/>
		<path class="st10" d="M112.75,40.83c0,3.14-2.55,5.69-5.68,5.69c-3.14,0-5.68-2.55-5.68-5.69s2.54-5.69,5.68-5.69
			C110.2,35.14,112.75,37.69,112.75,40.83"/>
		<g class="st11">
			<g>
				<g>
					<defs>
						<rect id="SVGID_15_" x="148.67" y="55.84" width="11.37" height="11.37"/>
					</defs>
					<clipPath id="SVGID_16_">
						<use xlink:href="#SVGID_15_"  style="overflow:visible;"/>
					</clipPath>
					<path class="st18" d="M160.04,61.52c0,3.14-2.55,5.69-5.68,5.69c-3.14,0-5.68-2.55-5.68-5.69c0-3.14,2.55-5.68,5.68-5.68
						C157.49,55.84,160.04,58.38,160.04,61.52"/>
				</g>
			</g>
		</g>
		<g class="st11">
			<g>
				<g>
					<defs>
						<rect id="SVGID_17_" x="166.86" y="116.79" width="9.1" height="9.1"/>
					</defs>
					<clipPath id="SVGID_18_">
						<use xlink:href="#SVGID_17_"  style="overflow:visible;"/>
					</clipPath>
					<path class="st19" d="M175.96,121.34c0,2.51-2.04,4.55-4.55,4.55c-2.51,0-4.55-2.04-4.55-4.55s2.04-4.55,4.55-4.55
						C173.92,116.79,175.96,118.83,175.96,121.34"/>
				</g>
			</g>
		</g>
		<g class="st20">
			<g>
				<g>
					<defs>
						<rect id="SVGID_19_" x="74.09" y="121.34" width="20.46" height="20.46"/>
					</defs>
					<clipPath id="SVGID_20_">
						<use xlink:href="#SVGID_19_"  style="overflow:visible;"/>
					</clipPath>
					<path class="st21" d="M94.56,131.57c0,5.65-4.58,10.23-10.23,10.23c-5.65,0-10.23-4.58-10.23-10.23
						c0-5.65,4.58-10.23,10.23-10.23C89.97,121.34,94.56,125.92,94.56,131.57"/>
				</g>
			</g>
		</g>
		<path class="st4" d="M161.4,28.09c0,5.65-4.58,10.23-10.23,10.23s-10.24-4.58-10.24-10.23s4.58-10.23,10.24-10.23
			C156.82,17.86,161.4,22.44,161.4,28.09"/>
		<path class="st4" d="M135.03,162.25c0,4.71-3.82,8.53-8.53,8.53c-4.7,0-8.52-3.81-8.52-8.53c0-4.71,3.82-8.52,8.52-8.52
			C131.21,153.73,135.03,157.55,135.03,162.25"/>
		<path class="st4" d="M165.72,148.96c0,5.65-4.58,10.23-10.23,10.23s-10.23-4.58-10.23-10.23s4.58-10.23,10.23-10.23
			C161.14,138.73,165.72,143.32,165.72,148.96"/>
		<g class="st11">
			<g>
				<g>
					<defs>
						<rect id="SVGID_21_" x="63.41" y="140.41" width="11.37" height="11.37"/>
					</defs>
					<clipPath id="SVGID_22_">
						<use xlink:href="#SVGID_21_"  style="overflow:visible;"/>
					</clipPath>
					<path class="st22" d="M74.78,146.1c0,3.14-2.55,5.69-5.68,5.69c-3.14,0-5.68-2.55-5.68-5.69s2.54-5.68,5.68-5.68
						C72.23,140.41,74.78,142.96,74.78,146.1"/>
				</g>
			</g>
		</g>
		<path class="st10" d="M198.92,125.47c0,5.65-4.58,10.23-10.23,10.23s-10.23-4.58-10.23-10.23c0-5.65,4.58-10.24,10.23-10.24
			S198.92,119.81,198.92,125.47"/>
		<g class="st11">
			<g>
				<g>
					<defs>
						<rect id="SVGID_23_" x="137.87" y="160.51" width="13.65" height="13.64"/>
					</defs>
					<clipPath id="SVGID_24_">
						<use xlink:href="#SVGID_23_"  style="overflow:visible;"/>
					</clipPath>
					<path class="st23" d="M151.52,167.33c0,3.76-3.06,6.82-6.82,6.82c-3.77,0-6.82-3.05-6.82-6.82s3.05-6.82,6.82-6.82
						C148.46,160.51,151.52,163.56,151.52,167.33"/>
				</g>
			</g>
		</g>
		<path class="st13" d="M85.01,150.88c0,2.51-2.04,4.55-4.54,4.55c-2.52,0-4.55-2.04-4.55-4.55c0-2.51,2.03-4.55,4.55-4.55
			C82.97,146.34,85.01,148.37,85.01,150.88"/>
		<path class="st13" d="M61.82,83.83c0,2.51-2.04,4.55-4.55,4.55s-4.55-2.04-4.55-4.55s2.04-4.55,4.55-4.55S61.82,81.31,61.82,83.83
			"/>
		<path class="st13" d="M156.86,48.33c0,3.14-2.55,5.68-5.68,5.68c-3.14,0-5.68-2.55-5.68-5.68c0-3.14,2.54-5.69,5.68-5.69
			C154.31,42.65,156.86,45.19,156.86,48.33"/>
		<path class="st4" d="M121.91,140.41c0,3.14-2.54,5.68-5.68,5.68s-5.69-2.54-5.69-5.68s2.55-5.69,5.69-5.69
			C119.37,134.73,121.91,137.27,121.91,140.41"/>
		<path class="st13" d="M52.49,93.38c0,3.14-2.54,5.68-5.68,5.68s-5.69-2.54-5.69-5.68s2.55-5.68,5.69-5.68
			C49.95,87.69,52.49,90.24,52.49,93.38"/>
		<path class="st10" d="M50.67,125.31c0,3.14-2.54,5.68-5.69,5.68c-3.14,0-5.68-2.54-5.68-5.68c0-3.14,2.55-5.68,5.68-5.68
			C48.13,119.63,50.67,122.17,50.67,125.31"/>
		<path class="st10" d="M160.04,114.97c0,3.14-2.55,5.69-5.68,5.69c-3.14,0-5.68-2.54-5.68-5.69c0-3.13,2.55-5.68,5.68-5.68
			C157.49,109.29,160.04,111.84,160.04,114.97"/>
		<path class="st13" d="M171.41,90.87c0,2.51-2.04,4.55-4.55,4.55c-2.51,0-4.55-2.04-4.55-4.55s2.04-4.55,4.55-4.55
			C169.37,86.33,171.41,88.36,171.41,90.87"/>
		<path class="st10" d="M162.54,40.83c0,1.57-1.28,2.84-2.84,2.84c-1.57,0-2.84-1.27-2.84-2.84s1.27-2.84,2.84-2.84
			C161.27,37.99,162.54,39.26,162.54,40.83"/>
		<path class="st10" d="M147.31,61.52c0,1.57-1.27,2.84-2.84,2.84c-1.57,0-2.84-1.27-2.84-2.84s1.28-2.84,2.84-2.84
			S147.31,59.95,147.31,61.52"/>
		<path class="st10" d="M104.96,52.59c0,3.14-2.55,5.68-5.68,5.68s-5.69-2.54-5.69-5.68s2.55-5.68,5.69-5.68
			S104.96,49.45,104.96,52.59"/>
		<path class="st10" d="M137.98,25.25c0,1.56-1.27,2.84-2.84,2.84c-1.57,0-2.84-1.28-2.84-2.84c0-1.57,1.27-2.84,2.84-2.84
			C136.71,22.41,137.98,23.69,137.98,25.25"/>
		<path class="st10" d="M131.79,58.68c0,3.14-2.54,5.69-5.68,5.69c-3.14,0-5.68-2.55-5.68-5.69s2.54-5.68,5.68-5.68
			C129.25,52.99,131.79,55.53,131.79,58.68"/>
		<path class="st4" d="M178.46,65.81c0,3.14-2.54,5.69-5.68,5.69s-5.68-2.55-5.68-5.69s2.55-5.68,5.68-5.68
			C175.91,60.13,178.46,62.67,178.46,65.81"/>
		<path class="st13" d="M117.98,58.68c0,3.14-2.55,5.69-5.69,5.69s-5.69-2.55-5.69-5.69s2.55-5.68,5.69-5.68
			C115.43,52.99,117.98,55.53,117.98,58.68"/>
		<path class="st10" d="M117.12,49.75c0,1.57-1.27,2.84-2.84,2.84s-2.84-1.27-2.84-2.84s1.27-2.84,2.84-2.84
			C115.85,46.91,117.12,48.18,117.12,49.75"/>
		<path class="st10" d="M91.15,55.49c0,1.57-1.27,2.84-2.84,2.84s-2.85-1.27-2.85-2.84s1.28-2.84,2.85-2.84
			C89.87,52.65,91.15,53.92,91.15,55.49"/>
		<g class="st11">
			<g>
				<g>
					<defs>
						<rect id="SVGID_25_" x="56.13" y="46.91" width="11.37" height="11.36"/>
					</defs>
					<clipPath id="SVGID_26_">
						<use xlink:href="#SVGID_25_"  style="overflow:visible;"/>
					</clipPath>
					<path class="st24" d="M67.5,52.59c0,3.14-2.54,5.68-5.68,5.68s-5.69-2.54-5.69-5.68s2.55-5.68,5.69-5.68S67.5,49.45,67.5,52.59
						"/>
				</g>
			</g>
		</g>
		<path class="st10" d="M68.3,30.88c0,1.56-1.27,2.84-2.84,2.84s-2.84-1.28-2.84-2.84c0-1.57,1.27-2.85,2.84-2.85
			C67.02,28.04,68.3,29.31,68.3,30.88"/>
		<path class="st10" d="M93.99,45.15c0,3.14-2.54,5.68-5.68,5.68s-5.68-2.54-5.68-5.68s2.54-5.69,5.68-5.69
			C91.44,39.46,93.99,42.01,93.99,45.15"/>
		<path class="st13" d="M71.54,39.98c0,3.14-2.54,5.68-5.69,5.68c-3.14,0-5.69-2.55-5.69-5.68c0-3.14,2.55-5.68,5.69-5.68
			C68.99,34.29,71.54,36.83,71.54,39.98"/>
		<path class="st10" d="M93.99,16.73c0,1.57-1.27,2.84-2.84,2.84s-2.84-1.27-2.84-2.84s1.27-2.84,2.84-2.84
			C92.72,13.89,93.99,15.16,93.99,16.73"/>
		<path class="st10" d="M79.67,44.07c0,1.57-1.27,2.84-2.84,2.84s-2.84-1.27-2.84-2.84s1.27-2.85,2.84-2.85
			C78.39,41.22,79.67,42.5,79.67,44.07"/>
		<path class="st4" d="M152.65,73.77c0,4.32-3.56,7.83-7.96,7.83c-4.39,0-7.96-3.5-7.96-7.83c0-4.32,3.57-7.82,7.96-7.82
			C149.09,65.94,152.65,69.44,152.65,73.77"/>
		<g class="st11">
			<g>
				<g>
					<defs>
						<rect id="SVGID_27_" x="60.91" y="69.22" width="9.1" height="9.1"/>
					</defs>
					<clipPath id="SVGID_28_">
						<use xlink:href="#SVGID_27_"  style="overflow:visible;"/>
					</clipPath>
					<path class="st25" d="M70,73.77c0,2.52-2.04,4.55-4.55,4.55c-2.51,0-4.55-2.03-4.55-4.55c0-2.51,2.04-4.55,4.55-4.55
						C67.96,69.22,70,71.26,70,73.77"/>
				</g>
			</g>
		</g>
		<path class="st10" d="M58.4,73.77c0,3.14-2.55,5.69-5.68,5.69c-3.14,0-5.69-2.55-5.69-5.69s2.55-5.68,5.69-5.68
			S58.4,70.63,58.4,73.77"/>
		<path class="st10" d="M80.46,52.99c0,3.13-2.55,5.68-5.69,5.68s-5.68-2.55-5.68-5.68c0-3.14,2.54-5.69,5.68-5.69
			C77.92,47.3,80.46,49.85,80.46,52.99"/>
		<path class="st13" d="M90.01,88.83c0,3.14-2.54,5.68-5.68,5.68s-5.69-2.54-5.69-5.68s2.55-5.68,5.69-5.68
			C87.46,83.14,90.01,85.69,90.01,88.83"/>
		<path class="st10" d="M63.01,93.38c0,1.57-1.28,2.84-2.84,2.84c-1.57,0-2.84-1.27-2.84-2.84s1.27-2.85,2.84-2.85
			C61.74,90.53,63.01,91.81,63.01,93.38"/>
		<g class="st11">
			<g>
				<g>
					<defs>
						<rect id="SVGID_29_" x="27.43" y="87.46" width="11.37" height="11.37"/>
					</defs>
					<clipPath id="SVGID_30_">
						<use xlink:href="#SVGID_29_"  style="overflow:visible;"/>
					</clipPath>
					<path class="st26" d="M38.8,93.15c0,3.14-2.54,5.69-5.68,5.69s-5.69-2.55-5.69-5.69c0-3.13,2.55-5.68,5.69-5.68
						C36.25,87.46,38.8,90.01,38.8,93.15"/>
				</g>
			</g>
		</g>
		<g class="st11">
			<g>
				<g>
					<defs>
						<rect id="SVGID_31_" x="173.63" y="46.91" width="11.37" height="11.37"/>
					</defs>
					<clipPath id="SVGID_32_">
						<use xlink:href="#SVGID_31_"  style="overflow:visible;"/>
					</clipPath>
					<path class="st27" d="M184.99,52.59c0,3.14-2.54,5.69-5.68,5.69s-5.69-2.55-5.69-5.69c0-3.13,2.55-5.68,5.69-5.68
						C182.45,46.91,184.99,49.46,184.99,52.59"/>
				</g>
			</g>
		</g>
		<path class="st10" d="M33.11,46.4c0,1.56-1.28,2.84-2.85,2.84s-2.84-1.28-2.84-2.84c0-1.57,1.28-2.85,2.84-2.85
			C31.84,43.56,33.11,44.83,33.11,46.4"/>
		<path class="st10" d="M185.96,63.34c0,1.56-1.28,2.84-2.84,2.84c-1.57,0-2.84-1.28-2.84-2.84c0-1.57,1.28-2.84,2.84-2.84
			C184.68,60.5,185.96,61.77,185.96,63.34"/>
		<path class="st10" d="M71.76,62.91c0,2.35-1.91,4.26-4.26,4.26s-4.26-1.91-4.26-4.26c0-2.36,1.91-4.27,4.26-4.27
			C69.86,58.64,71.76,60.55,71.76,62.91"/>
		<path class="st13" d="M38.8,55.49c0,3.14-2.54,5.69-5.68,5.69s-5.69-2.55-5.69-5.69s2.55-5.68,5.69-5.68
			C36.25,49.81,38.8,52.35,38.8,55.49"/>
		<path class="st10" d="M46.92,59.59c0,1.57-1.27,2.84-2.84,2.84s-2.84-1.27-2.84-2.84s1.27-2.84,2.84-2.84
			C45.65,56.74,46.92,58.02,46.92,59.59"/>
		<path class="st13" d="M60,120.92c0,2.51-2.04,4.55-4.55,4.55s-4.55-2.04-4.55-4.55s2.04-4.55,4.55-4.55
			C57.96,116.37,60,118.41,60,120.92"/>
		<path class="st10" d="M72.5,128.13c0,3.14-2.55,5.69-5.69,5.69s-5.69-2.55-5.69-5.69s2.55-5.68,5.69-5.68
			C69.96,122.45,72.5,125,72.5,128.13"/>
		<path class="st10" d="M176.18,107.58c0,3.14-2.54,5.68-5.68,5.68s-5.68-2.54-5.68-5.68s2.55-5.68,5.68-5.68
			C173.64,101.9,176.18,104.45,176.18,107.58"/>
		<path class="st13" d="M107.06,66.18c0,3.14-2.55,5.68-5.68,5.68c-3.14,0-5.69-2.54-5.69-5.68s2.54-5.68,5.69-5.68
			C104.52,60.5,107.06,63.04,107.06,66.18"/>
		<path class="st10" d="M62.67,153.09c0,1.57-1.27,2.84-2.84,2.84s-2.84-1.28-2.84-2.84c0-1.57,1.27-2.84,2.84-2.84
			C61.4,150.25,62.67,151.52,62.67,153.09"/>
		<path class="st10" d="M36.98,137.26c0,3.14-2.55,5.68-5.68,5.68c-3.14,0-5.69-2.55-5.69-5.68c0-3.14,2.55-5.69,5.69-5.69
			C34.43,131.57,36.98,134.12,36.98,137.26"/>
		<path class="st10" d="M56.19,56.74c0,1.57-1.27,2.84-2.84,2.84s-2.84-1.28-2.84-2.84c0-1.57,1.27-2.84,2.84-2.84
			S56.19,55.17,56.19,56.74"/>
		<path class="st10" d="M112.29,90.53c0,3.14-2.55,5.69-5.69,5.69s-5.68-2.55-5.68-5.69c0-3.13,2.55-5.68,5.68-5.68
			C109.75,84.85,112.29,87.4,112.29,90.53"/>
		<path class="st13" d="M31.3,125.47c0,3.13-2.55,5.68-5.69,5.68s-5.68-2.55-5.68-5.68c0-3.14,2.54-5.69,5.68-5.69
			C28.75,119.78,31.3,122.32,31.3,125.47"/>
		<path class="st10" d="M49.65,103.72c0,1.57-1.27,2.84-2.84,2.84s-2.84-1.27-2.84-2.84s1.27-2.84,2.84-2.84
			C48.38,100.88,49.65,102.15,49.65,103.72"/>
		<path class="st10" d="M160.15,71.86c0,1.57-1.27,2.85-2.84,2.85c-1.57,0-2.84-1.27-2.84-2.85c0-1.57,1.27-2.84,2.84-2.84
			C158.88,69.02,160.15,70.29,160.15,71.86"/>
		<path class="st13" d="M161.74,85.64c0,1.57-1.27,2.84-2.84,2.84c-1.57,0-2.84-1.27-2.84-2.84s1.27-2.84,2.84-2.84
			C160.47,82.81,161.74,84.08,161.74,85.64"/>
		<path class="st10" d="M53.75,113.36c0,1.57-1.27,2.84-2.84,2.84s-2.84-1.27-2.84-2.84s1.27-2.84,2.84-2.84
			C52.47,110.52,53.75,111.79,53.75,113.36"/>
		<path class="st10" d="M136.17,66.18c0,1.57-1.27,2.85-2.84,2.85c-1.57,0-2.84-1.27-2.84-2.85c0-1.57,1.27-2.84,2.84-2.84
			C134.89,63.34,136.17,64.61,136.17,66.18"/>
		<path class="st10" d="M119.07,104.74c0,1.57-1.27,2.84-2.84,2.84s-2.84-1.27-2.84-2.84s1.27-2.84,2.84-2.84
			S119.07,103.18,119.07,104.74"/>
		<path class="st10" d="M120.82,96.22c0,1.57-1.27,2.84-2.84,2.84s-2.85-1.27-2.85-2.84s1.27-2.84,2.85-2.84
			C119.54,93.38,120.82,94.65,120.82,96.22"/>
		<path class="st10" d="M140.32,85.64c0,1.57-1.27,2.84-2.84,2.84c-1.57,0-2.84-1.27-2.84-2.84s1.27-2.84,2.84-2.84
			C139.05,82.81,140.32,84.08,140.32,85.64"/>
		<path class="st10" d="M140.83,128.13c0,1.57-1.28,2.85-2.85,2.85s-2.84-1.27-2.84-2.85c0-1.57,1.27-2.84,2.84-2.84
			S140.83,126.57,140.83,128.13"/>
		<path class="st10" d="M109.9,128.13c0,1.57-1.27,2.85-2.84,2.85s-2.84-1.27-2.84-2.85c0-1.57,1.27-2.84,2.84-2.84
			C108.63,125.29,109.9,126.57,109.9,128.13"/>
		<path class="st10" d="M164.7,122.45c0,1.57-1.27,2.84-2.84,2.84c-1.57,0-2.84-1.27-2.84-2.84s1.27-2.84,2.84-2.84
			S164.7,120.88,164.7,122.45"/>
		<path class="st10" d="M99.67,120.86c0,1.57-1.27,2.84-2.84,2.84s-2.84-1.27-2.84-2.84s1.28-2.84,2.84-2.84
			C98.4,118.02,99.67,119.29,99.67,120.86"/>
		<path class="st10" d="M138.44,92.55c0,1.25-1.02,2.27-2.27,2.27s-2.27-1.02-2.27-2.27c0-1.26,1.02-2.27,2.27-2.27
			C137.42,90.28,138.44,91.29,138.44,92.55"/>
		<path class="st10" d="M141.96,113.36c0,1.57-1.27,2.84-2.84,2.84c-1.57,0-2.84-1.27-2.84-2.84s1.27-2.84,2.84-2.84
			C140.69,110.52,141.96,111.79,141.96,113.36"/>
		<path class="st10" d="M139.46,104.74c0,1.57-1.27,2.84-2.84,2.84c-1.57,0-2.84-1.27-2.84-2.84s1.28-2.84,2.84-2.84
			C138.19,101.9,139.46,103.18,139.46,104.74"/>
		<path class="st10" d="M164.7,128.73c0,1.57-1.27,2.84-2.84,2.84c-1.57,0-2.84-1.27-2.84-2.84c0-1.56,1.27-2.84,2.84-2.84
			S164.7,127.17,164.7,128.73"/>
		<path class="st10" d="M116.23,131.57c0,1.57-1.27,2.85-2.84,2.85s-2.84-1.27-2.84-2.85c0-1.57,1.27-2.84,2.84-2.84
			C114.96,128.73,116.23,130,116.23,131.57"/>
		<path class="st10" d="M112.75,120.86c0,1.57-1.27,2.84-2.85,2.84c-1.56,0-2.84-1.27-2.84-2.84s1.27-2.84,2.84-2.84
			C111.47,118.02,112.75,119.29,112.75,120.86"/>
		<path class="st10" d="M130.36,136.09c0,1.57-1.27,2.84-2.84,2.84c-1.57,0-2.84-1.28-2.84-2.84c0-1.57,1.27-2.84,2.84-2.84
			C129.09,133.25,130.36,134.52,130.36,136.09"/>
		<path class="st13" d="M80.91,96.22c0,1.26-1.02,2.27-2.27,2.27c-1.26,0-2.27-1.02-2.27-2.27s1.02-2.28,2.27-2.28
			C79.9,93.94,80.91,94.96,80.91,96.22"/>
		<path class="st10" d="M84.89,116.11c0,1.57-1.27,2.84-2.84,2.84s-2.84-1.27-2.84-2.84s1.27-2.84,2.84-2.84
			C83.62,113.27,84.89,114.54,84.89,116.11"/>
		<path class="st10" d="M60.17,130.41c0,1.57-1.27,2.84-2.84,2.84s-2.85-1.27-2.85-2.84c0-1.57,1.28-2.84,2.85-2.84
			C58.89,127.57,60.17,128.84,60.17,130.41"/>
		<path class="st10" d="M173.34,130.41c0,1.57-1.27,2.84-2.84,2.84c-1.57,0-2.84-1.27-2.84-2.84c0-1.57,1.28-2.84,2.84-2.84
			C172.07,127.57,173.34,128.84,173.34,130.41"/>
		<path class="st10" d="M180.73,114.97c0,1.57-1.27,2.85-2.84,2.85c-1.57,0-2.84-1.27-2.84-2.85c0-1.56,1.27-2.84,2.84-2.84
			C179.46,112.13,180.73,113.41,180.73,114.97"/>
		<path class="st10" d="M147.53,138.94c0,1.57-1.28,2.84-2.84,2.84c-1.57,0-2.84-1.28-2.84-2.84c0-1.57,1.27-2.84,2.84-2.84
			C146.26,136.09,147.53,137.37,147.53,138.94"/>
		<path class="st10" d="M65.85,137.57c0,1.57-1.27,2.84-2.84,2.84c-1.57,0-2.85-1.27-2.85-2.84c0-1.57,1.27-2.85,2.85-2.85
			C64.58,134.73,65.85,136,65.85,137.57"/>
		<path class="st10" d="M114.28,70.21c0,1.57-1.27,2.84-2.84,2.84s-2.85-1.28-2.85-2.84c0-1.57,1.27-2.84,2.85-2.84
			C113.01,67.38,114.28,68.64,114.28,70.21"/>
		<path class="st10" d="M60.17,63.34c0,1.56-1.27,2.84-2.84,2.84s-2.85-1.27-2.85-2.84c0-1.57,1.28-2.84,2.85-2.84
			C58.89,60.5,60.17,61.76,60.17,63.34"/>
		<path class="st10" d="M170.5,42.65c0,1.56-1.27,2.84-2.84,2.84c-1.57,0-2.84-1.27-2.84-2.84s1.28-2.84,2.84-2.84
			S170.5,41.07,170.5,42.65"/>
		<path class="st10" d="M154.02,123.7c0,1.57-1.28,2.84-2.84,2.84c-1.57,0-2.84-1.27-2.84-2.84s1.27-2.84,2.84-2.84
			C152.74,120.86,154.02,122.13,154.02,123.7"/>
		<path class="st10" d="M156.86,133.82c0,1.56-1.27,2.84-2.84,2.84c-1.57,0-2.84-1.27-2.84-2.84c0-1.57,1.27-2.85,2.84-2.85
			C155.59,130.98,156.86,132.25,156.86,133.82"/>
		<path class="st10" d="M104.96,148.04c0,1.57-1.27,2.84-2.84,2.84s-2.84-1.27-2.84-2.84c0-1.57,1.27-2.84,2.84-2.84
			S104.96,146.47,104.96,148.04"/>
		<path class="st10" d="M102.12,140.41c0,1.57-1.28,2.84-2.84,2.84c-1.57,0-2.85-1.27-2.85-2.84c0-1.57,1.27-2.84,2.85-2.84
			C100.84,137.57,102.12,138.84,102.12,140.41"/>
		<path class="st13" d="M83.19,164.38c0,2.51-2.04,4.55-4.55,4.55s-4.55-2.04-4.55-4.55c0-2.51,2.04-4.55,4.55-4.55
			C81.15,159.84,83.19,161.87,83.19,164.38"/>
		<path class="st28" d="M112.94,216l-0.2-18.95l1.99-27.57V157.1l5.93-6.01l0,0l0,0l0.14-0.14l0,0l2.84-2.9l15.46-11.95l3.87-3.87
			l3.64-3.5l-10.15,5.68l-12.8,8.84l-4.59,4.22l-5.68,3.47l-9.71-19.85c-0.34-1.56-0.47-3.06-0.18-4.4
			c1.04-4.75,4.02-8.79,5.16-13.69c1.26-5.41,1.97-11.84,1.96-17.81c-2.15,8.72-5.61,17.07-8.74,25.39
			c-0.74,1.97-1.79,4.35-2.26,6.42c-0.65,2.84,0.31,4.16,1.29,6.6c1.66,4.1,3.38,8.63,4.92,12.74c0.91,2.42,1.68,5.97,2.77,8.22
			l1.3,7.72l-1.25,14.84l-2.86,18.27L103.06,216H112.94z"/>
		<path class="st13" d="M114.79,110.52c0,1.25-1.02,2.28-2.28,2.28s-2.27-1.02-2.27-2.28s1.02-2.28,2.27-2.28
			C113.77,108.24,114.79,109.26,114.79,110.52"/>
		<path class="st13" d="M183,71.5c0,1.25-1.02,2.27-2.27,2.27c-1.26,0-2.27-1.02-2.27-2.27c0-1.26,1.02-2.28,2.27-2.28
			S183,70.24,183,71.5"/>
		<path class="st13" d="M124.12,132.8c0,1.26-1.02,2.27-2.27,2.27c-1.26,0-2.27-1.02-2.27-2.27s1.02-2.27,2.27-2.27
			C123.1,130.52,124.12,131.54,124.12,132.8"/>
		<path class="st13" d="M100.64,134.41c0,1.26-1.02,2.27-2.28,2.27s-2.27-1.01-2.27-2.27c0-1.25,1.01-2.28,2.27-2.28
			C99.62,132.14,100.64,133.16,100.64,134.41"/>
		<path class="st13" d="M80.35,143.6c0,1.25-1.02,2.27-2.28,2.27s-2.27-1.02-2.27-2.27c0-1.26,1.02-2.27,2.27-2.27
			C79.33,141.33,80.35,142.34,80.35,143.6"/>
		<path class="st13" d="M110.87,134.33c0,1.26-1.02,2.28-2.27,2.28s-2.28-1.02-2.28-2.28c0-1.25,1.02-2.27,2.28-2.27
			C109.85,132.06,110.87,133.07,110.87,134.33"/>
		<path class="st13" d="M74.04,135.7c0,1.25-1.02,2.27-2.28,2.27c-1.25,0-2.27-1.02-2.27-2.27c0-1.26,1.02-2.27,2.27-2.27
			C73.02,133.42,74.04,134.44,74.04,135.7"/>
		<path class="st13" d="M119.4,68.09c0,1.26-1.02,2.28-2.28,2.28c-1.25,0-2.27-1.02-2.27-2.28c0-1.25,1.02-2.27,2.27-2.27
			C118.38,65.81,119.4,66.83,119.4,68.09"/>
		<path class="st13" d="M125.93,93.15c0,1.26-1.02,2.28-2.28,2.28c-1.25,0-2.27-1.02-2.27-2.28c0-1.25,1.02-2.27,2.27-2.27
			C124.92,90.87,125.93,91.89,125.93,93.15"/>
		<path class="st10" d="M61.25,35.14c0,1.57-1.27,2.84-2.84,2.84c-1.56,0-2.84-1.28-2.84-2.84c0-1.57,1.28-2.84,2.84-2.84
			C59.98,32.3,61.25,33.57,61.25,35.14"/>
		<path class="st10" d="M38.28,127.57c0,1.57-1.27,2.84-2.84,2.84s-2.84-1.27-2.84-2.84c0-1.57,1.27-2.84,2.84-2.84
			C37.01,124.73,38.28,126,38.28,127.57"/>
		<path class="st10" d="M53.35,62.91c0,1.57-1.27,2.84-2.84,2.84s-2.85-1.27-2.85-2.84s1.27-2.84,2.85-2.84
			C52.07,60.06,53.35,61.34,53.35,62.91"/>
		<path class="st13" d="M49.93,55.49c0,1.25-1.02,2.27-2.27,2.27c-1.26,0-2.27-1.02-2.27-2.27c0-1.26,1.02-2.27,2.27-2.27
			C48.92,53.22,49.93,54.23,49.93,55.49"/>
		<path class="st13" d="M171.74,49.69c0,1.25-1.02,2.27-2.27,2.27c-1.26,0-2.27-1.02-2.27-2.27c0-1.26,1.02-2.27,2.27-2.27
			S171.74,48.44,171.74,49.69"/>
		<path class="st13" d="M41.58,134.33c0,1.26-1.02,2.28-2.27,2.28c-1.26,0-2.28-1.02-2.28-2.28c0-1.25,1.02-2.27,2.28-2.27
			C40.56,132.06,41.58,133.07,41.58,134.33"/>
		<path class="st10" d="M98.54,90.53c0,1.57-1.27,2.85-2.84,2.85s-2.85-1.27-2.85-2.85c0-1.56,1.28-2.84,2.85-2.84
			C97.26,87.69,98.54,88.97,98.54,90.53"/>
		<path class="st10" d="M107.06,155.93c0,1.57-1.28,2.85-2.84,2.85c-1.57,0-2.84-1.28-2.84-2.85s1.27-2.84,2.84-2.84
			S107.06,154.36,107.06,155.93"/>
		<path class="st10" d="M151.51,129.38c0,1.57-1.27,2.84-2.84,2.84c-1.57,0-2.84-1.28-2.84-2.84c0-1.57,1.27-2.84,2.84-2.84
			C150.24,126.54,151.51,127.81,151.51,129.38"/>
		<path class="st13" d="M92.29,119.63c0,1.25-1.02,2.27-2.28,2.27s-2.27-1.02-2.27-2.27c0-1.26,1.02-2.27,2.27-2.27
			C91.26,117.35,92.29,118.37,92.29,119.63"/>
		<path class="st13" d="M99.11,157.25c0,1.26-1.02,2.27-2.28,2.27s-2.27-1.02-2.27-2.27c0-1.26,1.02-2.27,2.27-2.27
			C98.09,154.98,99.11,155.99,99.11,157.25"/>
		<path class="st10" d="M167.54,116.11c0,1.57-1.27,2.84-2.84,2.84c-1.57,0-2.84-1.27-2.84-2.84s1.27-2.84,2.84-2.84
			C166.27,113.27,167.54,114.54,167.54,116.11"/>
		<path class="st13" d="M146.74,85.64c0,1.26-1.02,2.28-2.27,2.28c-1.26,0-2.27-1.02-2.27-2.28c0-1.25,1.01-2.27,2.27-2.27
			C145.72,83.37,146.74,84.39,146.74,85.64"/>
		<path class="st10" d="M153.67,84.51c0,1.57-1.27,2.84-2.84,2.84s-2.84-1.27-2.84-2.84s1.27-2.84,2.84-2.84
			S153.67,82.94,153.67,84.51"/>
		<path class="st10" d="M141.62,155.93c0,1.57-1.27,2.85-2.84,2.85c-1.57,0-2.84-1.28-2.84-2.85s1.27-2.84,2.84-2.84
			C140.35,153.09,141.62,154.36,141.62,155.93"/>
		<path class="st10" d="M158.9,79.28c0,1.57-1.27,2.85-2.84,2.85c-1.57,0-2.84-1.27-2.84-2.85c0-1.56,1.27-2.84,2.84-2.84
			C157.63,76.44,158.9,77.71,158.9,79.28"/>
		<path class="st13" d="M161.29,107.58c0,1.26-1.02,2.27-2.27,2.27c-1.26,0-2.27-1.02-2.27-2.27s1.02-2.27,2.27-2.27
			C160.27,105.31,161.29,106.33,161.29,107.58"/>
		<path class="st13" d="M162.31,136.09c0,1.26-1.02,2.28-2.27,2.28s-2.27-1.02-2.27-2.28c0-1.25,1.02-2.27,2.27-2.27
			C161.3,133.82,162.31,134.84,162.31,136.09"/>
		<path class="st13" d="M157.77,127.57c0,1.26-1.01,2.28-2.27,2.28c-1.26,0-2.27-1.02-2.27-2.28c0-1.26,1.01-2.27,2.27-2.27
			C156.75,125.29,157.77,126.31,157.77,127.57"/>
		<path class="st10" d="M133.94,89.71c0,1.57-1.27,2.84-2.85,2.84c-1.57,0-2.84-1.28-2.84-2.84c0-1.57,1.27-2.84,2.84-2.84
			C132.66,86.87,133.94,88.14,133.94,89.71"/>
		<path class="st10" d="M136.78,79.78c0,1.57-1.27,2.84-2.84,2.84c-1.57,0-2.85-1.27-2.85-2.84s1.27-2.84,2.85-2.84
			C135.51,76.94,136.78,78.21,136.78,79.78"/>
		<path class="st10" d="M128.95,68.09c0,1.57-1.27,2.84-2.84,2.84s-2.84-1.27-2.84-2.84s1.27-2.84,2.84-2.84
			C127.68,65.24,128.95,66.52,128.95,68.09"/>
		<path class="st13" d="M165.27,76.44c0,1.25-1.02,2.27-2.28,2.27c-1.25,0-2.27-1.02-2.27-2.27c0-1.26,1.02-2.28,2.27-2.28
			C164.25,74.16,165.27,75.18,165.27,76.44"/>
		<path class="st13" d="M134.57,72.07c0,1.25-1.02,2.27-2.27,2.27c-1.26,0-2.27-1.02-2.27-2.27s1.02-2.27,2.27-2.27
			C133.55,69.79,134.57,70.81,134.57,72.07"/>
		<path class="st13" d="M168,136.09c0,1.26-1.02,2.28-2.28,2.28c-1.25,0-2.27-1.02-2.27-2.28c0-1.25,1.02-2.27,2.27-2.27
			C166.98,133.82,168,134.84,168,136.09"/>
		<path class="st10" d="M91.03,158.78c0,2.5-2.04,4.55-4.55,4.55s-4.55-2.04-4.55-4.55c0-2.51,2.04-4.55,4.55-4.55
			C89,154.23,91.03,156.26,91.03,158.78"/>
		<path class="st10" d="M148.1,112.13c0,1.57-1.27,2.84-2.84,2.84c-1.57,0-2.84-1.27-2.84-2.84s1.27-2.85,2.84-2.85
			C146.83,109.29,148.1,110.56,148.1,112.13"/>
		<path class="st10" d="M43.97,86.1c0,1.57-1.28,2.84-2.85,2.84s-2.84-1.27-2.84-2.84s1.27-2.84,2.84-2.84
			C42.69,83.26,43.97,84.53,43.97,86.1"/>
		<path class="st10" d="M57.33,98.04c0,1.57-1.27,2.84-2.85,2.84c-1.57,0-2.84-1.27-2.84-2.84s1.27-2.84,2.84-2.84
			C56.05,95.19,57.33,96.47,57.33,98.04"/>
		<path class="st10" d="M74.61,78.78c0,1.57-1.27,2.84-2.85,2.84c-1.57,0-2.84-1.27-2.84-2.84s1.27-2.84,2.84-2.84
			S74.61,77.21,74.61,78.78"/>
		<path class="st10" d="M25.61,84.96c0,1.57-1.27,2.84-2.84,2.84s-2.84-1.27-2.84-2.84s1.27-2.84,2.84-2.84S25.61,83.4,25.61,84.96"
			/>
		<path class="st10" d="M73.98,155.43c0,1.57-1.27,2.84-2.84,2.84s-2.84-1.27-2.84-2.84c0-1.57,1.27-2.84,2.84-2.84
			C72.71,152.59,73.98,153.86,73.98,155.43"/>
		<path class="st10" d="M130.36,150.25c0,1.57-1.27,2.84-2.84,2.84c-1.57,0-2.84-1.27-2.84-2.84c0-1.57,1.27-2.84,2.84-2.84
			C129.09,147.41,130.36,148.68,130.36,150.25"/>
		<path class="st10" d="M49.88,83.94c0,1.57-1.27,2.84-2.85,2.84c-1.57,0-2.84-1.27-2.84-2.84s1.27-2.85,2.84-2.85
			C48.61,81.09,49.88,82.37,49.88,83.94"/>
		<path class="st13" d="M52.78,131.57c0,1.26-1.02,2.28-2.27,2.28c-1.26,0-2.28-1.02-2.28-2.28c0-1.25,1.02-2.27,2.28-2.27
			C51.76,129.3,52.78,130.32,52.78,131.57"/>
		<path class="st13" d="M63.52,143.26c0,1.25-1.02,2.27-2.27,2.27s-2.28-1.02-2.28-2.27c0-1.26,1.02-2.28,2.28-2.28
			S63.52,142,63.52,143.26"/>
		<path class="st13" d="M92.29,81.67c0,1.26-1.02,2.27-2.28,2.27s-2.27-1.02-2.27-2.27s1.02-2.27,2.27-2.27
			C91.26,79.39,92.29,80.41,92.29,81.67"/>
		<path class="st13" d="M171.07,55.43c0,1.26-1.02,2.27-2.27,2.27c-1.26,0-2.27-1.01-2.27-2.27c0-1.25,1.02-2.27,2.27-2.27
			S171.07,54.18,171.07,55.43"/>
		<path class="st10" d="M83.3,109.29c0,1.57-1.27,2.85-2.84,2.85s-2.85-1.27-2.85-2.85c0-1.57,1.27-2.84,2.85-2.84
			C82.03,106.45,83.3,107.72,83.3,109.29"/>
		<path class="st10" d="M111.44,76.44c0,1.57-1.28,2.84-2.85,2.84s-2.84-1.27-2.84-2.84s1.28-2.85,2.84-2.85
			C110.17,73.59,111.44,74.87,111.44,76.44"/>
		<path class="st10" d="M80.46,82.12c0,1.57-1.28,2.84-2.85,2.84s-2.84-1.27-2.84-2.84s1.27-2.85,2.84-2.85
			C79.19,79.28,80.46,80.55,80.46,82.12"/>
		<path class="st10" d="M165.15,99.94c0,1.57-1.27,2.85-2.84,2.85c-1.57,0-2.84-1.27-2.84-2.85c0-1.57,1.27-2.84,2.84-2.84
			C163.88,97.1,165.15,98.37,165.15,99.94"/>
		<path class="st10" d="M142.31,35.43c0,1.57-1.27,2.84-2.84,2.84c-1.57,0-2.84-1.27-2.84-2.84s1.27-2.84,2.84-2.84
			C141.03,32.59,142.31,33.86,142.31,35.43"/>
		<path class="st10" d="M97.4,24.38c0,1.57-1.27,2.84-2.84,2.84s-2.84-1.27-2.84-2.84s1.27-2.84,2.84-2.84
			C96.13,21.54,97.4,22.81,97.4,24.38"/>
		<path class="st13" d="M56.19,105.31c0,1.57-1.27,2.84-2.84,2.84s-2.84-1.27-2.84-2.84s1.27-2.84,2.84-2.84
			S56.19,103.74,56.19,105.31"/>
		<path class="st10" d="M82.05,102.21c0,1.57-1.27,2.84-2.84,2.84s-2.84-1.27-2.84-2.84s1.27-2.84,2.84-2.84
			C80.78,99.38,82.05,100.65,82.05,102.21"/>
		<path class="st13" d="M108.6,99.94c0,1.26-1.02,2.27-2.28,2.27c-1.25,0-2.27-1.02-2.27-2.27c0-1.26,1.02-2.27,2.27-2.27
			C107.58,97.67,108.6,98.68,108.6,99.94"/>
		<path class="st13" d="M96.83,60.5c0,1.25-1.02,2.27-2.27,2.27s-2.27-1.02-2.27-2.27c0-1.26,1.02-2.27,2.27-2.27
			C95.82,58.22,96.83,59.24,96.83,60.5"/>
		<path class="st13" d="M99.11,42.65c0,1.26-1.02,2.27-2.28,2.27s-2.27-1.02-2.27-2.27c0-1.26,1.02-2.27,2.27-2.27
			C98.09,40.37,99.11,41.39,99.11,42.65"/>
		<path class="st13" d="M68.13,96.22c0,1.26-1.02,2.27-2.27,2.27s-2.27-1.02-2.27-2.27s1.02-2.28,2.27-2.28S68.13,94.96,68.13,96.22
			"/>
		<path class="st10" d="M171.64,82.69c0,1.57-1.27,2.84-2.84,2.84c-1.56,0-2.84-1.27-2.84-2.84s1.28-2.84,2.84-2.84
			C170.36,79.84,171.64,81.12,171.64,82.69"/>
		<path class="st13" d="M177.32,87.92c0,1.25-1.01,2.27-2.27,2.27c-1.26,0-2.27-1.02-2.27-2.27c0-1.26,1.02-2.28,2.27-2.28
			C176.31,85.64,177.32,86.66,177.32,87.92"/>
		<g class="st11">
			<g>
				<g>
					<defs>
						<rect id="SVGID_33_" x="177.43" y="74.91" width="11.37" height="11.37"/>
					</defs>
					<clipPath id="SVGID_34_">
						<use xlink:href="#SVGID_33_"  style="overflow:visible;"/>
					</clipPath>
					<path class="st29" d="M188.8,80.6c0,3.13-2.54,5.68-5.68,5.68s-5.68-2.55-5.68-5.68c0-3.14,2.55-5.69,5.68-5.69
						C186.26,74.91,188.8,77.46,188.8,80.6"/>
				</g>
			</g>
		</g>
		<path class="st10" d="M175.55,80.11c-0.99,1.22-2.78,1.4-4,0.41s-1.4-2.78-0.41-4c0.99-1.22,2.78-1.4,4-0.41
			C176.35,77.1,176.54,78.89,175.55,80.11"/>
		<path class="st10" d="M165.38,81.67c0,1.01-0.81,1.82-1.82,1.82c-1,0-1.82-0.81-1.82-1.82c0-1,0.82-1.82,1.82-1.82
			C164.57,79.84,165.38,80.66,165.38,81.67"/>
		<path class="st10" d="M159.87,54.01c0,0.78-0.64,1.42-1.42,1.42c-0.79,0-1.42-0.64-1.42-1.42s0.63-1.42,1.42-1.42
			C159.23,52.59,159.87,53.23,159.87,54.01"/>
		<path class="st10" d="M182.15,88.37c0,0.79-0.64,1.42-1.42,1.42c-0.79,0-1.42-0.64-1.42-1.42s0.64-1.42,1.42-1.42
			C181.52,86.95,182.15,87.59,182.15,88.37"/>
		<path class="st10" d="M173.06,98.04c0,0.79-0.64,1.42-1.42,1.42c-0.79,0-1.42-0.63-1.42-1.42c0-0.78,0.64-1.42,1.42-1.42
			C172.42,96.61,173.06,97.25,173.06,98.04"/>
		<path class="st10" d="M22.77,114.97c0,1.57-1.27,2.85-2.84,2.85s-2.84-1.27-2.84-2.85c0-1.56,1.27-2.84,2.84-2.84
			C21.49,112.13,22.77,113.41,22.77,114.97"/>
		<path class="st13" d="M24.64,107.58c0,1.26-1.02,2.27-2.28,2.27c-1.25,0-2.27-1.02-2.27-2.27s1.02-2.27,2.27-2.27
			C23.63,105.31,24.64,106.33,24.64,107.58"/>
		<path class="st13" d="M24.64,95.65c0,1.26-1.02,2.27-2.28,2.27c-1.25,0-2.27-1.02-2.27-2.27s1.02-2.27,2.27-2.27
			C23.63,93.37,24.64,94.4,24.64,95.65"/>
		<path class="st10" d="M25.21,70.93c0,1.57-1.27,2.84-2.85,2.84c-1.56,0-2.84-1.27-2.84-2.84s1.27-2.84,2.84-2.84
			C23.94,68.09,25.21,69.36,25.21,70.93"/>
		<path class="st13" d="M28.05,61.52c0,1.57-1.27,2.84-2.84,2.84s-2.85-1.27-2.85-2.84s1.28-2.84,2.85-2.84
			C26.78,58.68,28.05,59.95,28.05,61.52"/>
		<path class="st10" d="M29.25,101.08c0,1-0.82,1.82-1.82,1.82s-1.82-0.82-1.82-1.82c0-1.01,0.81-1.82,1.82-1.82
			C28.43,99.26,29.25,100.07,29.25,101.08"/>
		<path class="st10" d="M166.41,50.83c0,1.57-1.27,2.85-2.85,2.85c-1.56,0-2.84-1.28-2.84-2.85s1.27-2.84,2.84-2.84
			C165.14,47.99,166.41,49.26,166.41,50.83"/>
		<path class="st10" d="M165.38,68.09c0,1.57-1.27,2.84-2.84,2.84c-1.57,0-2.84-1.27-2.84-2.84s1.27-2.84,2.84-2.84
			C164.11,65.24,165.38,66.52,165.38,68.09"/>
		<path class="st10" d="M164.87,59.59c0,0.78-0.64,1.42-1.42,1.42c-0.79,0-1.42-0.64-1.42-1.42c0-0.79,0.64-1.42,1.42-1.42
			C164.23,58.17,164.87,58.8,164.87,59.59"/>
		<path class="st10" d="M170.22,74.28c0,0.79-0.64,1.42-1.42,1.42c-0.79,0-1.42-0.64-1.42-1.42c0-0.79,0.64-1.43,1.42-1.43
			S170.22,73.49,170.22,74.28"/>
	</g>
</g>
</svg>
